<svg xmlns="http://www.w3.org/2000/svg" xmlns:xlink="http://www.w3.org/1999/xlink" width="100" zoomAndPan="magnify" viewBox="0 0 75 74.999997" height="100" preserveAspectRatio="xMidYMid meet" version="1.2"><defs/><g id="2a1f124dc9"><g style="fill:#00bdd2;fill-opacity:1;"><g transform="translate(16.732159, 67.129005)"><path style="stroke:none" d="M 9.75 -23.734375 L 17.703125 -11.84375 L 14.359375 -9.59375 L 12.5625 -11.375 C 12.0625 -8.675781 10.625 -6.535156 8.25 -4.953125 C 5.9375 -3.398438 3.691406 -3.125 1.515625 -4.125 C -0.648438 -5.125 -3 -7.519531 -5.53125 -11.3125 C -8.226562 -15.34375 -9.40625 -18.582031 -9.0625 -21.03125 C -8.71875 -23.476562 -6.828125 -25.847656 -3.390625 -28.140625 C -0.910156 -29.796875 1.351562 -30.96875 3.40625 -31.65625 L 5.296875 -28.0625 C 2.972656 -26.664062 0.992188 -25.421875 -0.640625 -24.328125 C -1.554688 -23.710938 -2.226562 -23.148438 -2.65625 -22.640625 C -3.09375 -22.140625 -3.34375 -21.503906 -3.40625 -20.734375 C -3.46875 -19.972656 -3.269531 -19.101562 -2.8125 -18.125 C -2.363281 -17.144531 -1.628906 -15.894531 -0.609375 -14.375 C 1.109375 -11.800781 2.523438 -10.195312 3.640625 -9.5625 C 4.753906 -8.925781 5.957031 -9.046875 7.25 -9.921875 C 8.445312 -10.710938 9.445312 -11.882812 10.25 -13.4375 L 5.34375 -20.78125 Z M 9.75 -23.734375 "/></g></g><g style="fill:#00bdd2;fill-opacity:1;"><g transform="translate(35.896861, 54.315902)"><path style="stroke:none" d="M 5.015625 -33.203125 L 12.359375 -10.09375 C 12.523438 -9.644531 12.539062 -9.207031 12.40625 -8.78125 C 12.269531 -8.363281 12 -8.019531 11.59375 -7.75 L 7.4375 -4.96875 C 7.039062 -4.707031 6.617188 -4.59375 6.171875 -4.625 C 5.734375 -4.664062 5.335938 -4.847656 4.984375 -5.171875 L -13.59375 -20.765625 L -8.890625 -23.90625 L 4.796875 -11.515625 C 5.523438 -10.847656 6.207031 -10.191406 6.84375 -9.546875 L 7.59375 -10.0625 C 7.40625 -10.46875 7.0625 -11.34375 6.5625 -12.6875 L 0.328125 -30.0625 Z M 5.015625 -33.203125 "/></g></g><g style="fill:#00bdd2;fill-opacity:1;"><g transform="translate(54.912084, 41.602738)"><path style="stroke:none" d="M 2.09375 -1.390625 L -11.703125 -22.015625 C -9.960938 -23.441406 -7.410156 -25.285156 -4.046875 -27.546875 C -1.148438 -29.472656 1.140625 -30.320312 2.828125 -30.09375 C 4.515625 -29.875 6.226562 -28.457031 7.96875 -25.84375 C 9.71875 -23.238281 10.40625 -21.125 10.03125 -19.5 C 9.664062 -17.882812 8.175781 -16.203125 5.5625 -14.453125 C 4.25 -13.578125 2.90625 -12.789062 1.53125 -12.09375 L 6.640625 -4.4375 Z M -0.65625 -15.34375 L 2.53125 -17.484375 C 3.6875 -18.296875 4.332031 -19.0625 4.46875 -19.78125 C 4.613281 -20.507812 4.257812 -21.507812 3.40625 -22.78125 C 2.5625 -24.050781 1.773438 -24.765625 1.046875 -24.921875 C 0.316406 -25.078125 -0.632812 -24.765625 -1.8125 -23.984375 L -4.96875 -21.796875 Z M -0.65625 -15.34375 "/></g></g></g></svg>