<svg xmlns="http://www.w3.org/2000/svg" xmlns:xlink="http://www.w3.org/1999/xlink" width="100" zoomAndPan="magnify" viewBox="0 0 75 74.999997" height="100" preserveAspectRatio="xMidYMid meet" version="1.2"><defs><clipPath id="b86142ce65"><path d="M 0 7.5 L 75 7.5 L 75 22.953125 L 0 22.953125 Z M 0 7.5 "/></clipPath><clipPath id="4c9fc6324b"><path d="M 3.75 7.5 L 71.25 7.5 C 73.320312 7.5 75 9.179688 75 11.25 L 75 19.203125 C 75 21.273438 73.320312 22.953125 71.25 22.953125 L 3.75 22.953125 C 1.679688 22.953125 0 21.273438 0 19.203125 L 0 11.25 C 0 9.179688 1.679688 7.5 3.75 7.5 Z M 3.75 7.5 "/></clipPath><clipPath id="89c5d04773"><path d="M 0 0.5 L 75 0.5 L 75 15.953125 L 0 15.953125 Z M 0 0.5 "/></clipPath><clipPath id="0003fb84c7"><path d="M 3.75 0.5 L 71.25 0.5 C 73.320312 0.5 75 2.179688 75 4.25 L 75 12.203125 C 75 14.273438 73.320312 15.953125 71.25 15.953125 L 3.75 15.953125 C 1.679688 15.953125 0 14.273438 0 12.203125 L 0 4.25 C 0 2.179688 1.679688 0.5 3.75 0.5 Z M 3.75 0.5 "/></clipPath><clipPath id="0a65bfb319"><rect x="0" width="75" y="0" height="16"/></clipPath><clipPath id="51de91ddf9"><path d="M 0 31.105469 L 75 31.105469 L 75 46.558594 L 0 46.558594 Z M 0 31.105469 "/></clipPath><clipPath id="9cb3feb7a4"><path d="M 3.75 31.105469 L 71.25 31.105469 C 73.320312 31.105469 75 32.785156 75 34.855469 L 75 42.808594 C 75 44.878906 73.320312 46.558594 71.25 46.558594 L 3.75 46.558594 C 1.679688 46.558594 0 44.878906 0 42.808594 L 0 34.855469 C 0 32.785156 1.679688 31.105469 3.75 31.105469 Z M 3.75 31.105469 "/></clipPath><clipPath id="b4b6ef32a2"><path d="M 0 0.105469 L 75 0.105469 L 75 15.558594 L 0 15.558594 Z M 0 0.105469 "/></clipPath><clipPath id="fab59e3333"><path d="M 3.75 0.105469 L 71.25 0.105469 C 73.320312 0.105469 75 1.785156 75 3.855469 L 75 11.808594 C 75 13.878906 73.320312 15.558594 71.25 15.558594 L 3.75 15.558594 C 1.679688 15.558594 0 13.878906 0 11.808594 L 0 3.855469 C 0 1.785156 1.679688 0.105469 3.75 0.105469 Z M 3.75 0.105469 "/></clipPath><clipPath id="a55c897e1b"><rect x="0" width="75" y="0" height="16"/></clipPath><clipPath id="73fba07d34"><path d="M 0 54.808594 L 75 54.808594 L 75 70.261719 L 0 70.261719 Z M 0 54.808594 "/></clipPath><clipPath id="e79a570681"><path d="M 3.75 54.808594 L 71.25 54.808594 C 73.320312 54.808594 75 56.488281 75 58.558594 L 75 66.511719 C 75 68.582031 73.320312 70.261719 71.25 70.261719 L 3.75 70.261719 C 1.679688 70.261719 0 68.582031 0 66.511719 L 0 58.558594 C 0 56.488281 1.679688 54.808594 3.75 54.808594 Z M 3.75 54.808594 "/></clipPath><clipPath id="58e76d59f6"><path d="M 0 0.808594 L 75 0.808594 L 75 16.261719 L 0 16.261719 Z M 0 0.808594 "/></clipPath><clipPath id="3e377e8bee"><path d="M 3.75 0.808594 L 71.25 0.808594 C 73.320312 0.808594 75 2.488281 75 4.558594 L 75 12.511719 C 75 14.582031 73.320312 16.261719 71.25 16.261719 L 3.75 16.261719 C 1.679688 16.261719 0 14.582031 0 12.511719 L 0 4.558594 C 0 2.488281 1.679688 0.808594 3.75 0.808594 Z M 3.75 0.808594 "/></clipPath><clipPath id="c11860e558"><rect x="0" width="75" y="0" height="17"/></clipPath></defs><g id="0000e6c411"><g clip-rule="nonzero" clip-path="url(#b86142ce65)"><g clip-rule="nonzero" clip-path="url(#4c9fc6324b)"><g transform="matrix(1,0,0,1,0,7)"><g clip-path="url(#0a65bfb319)"><g clip-rule="nonzero" clip-path="url(#89c5d04773)"><g clip-rule="nonzero" clip-path="url(#0003fb84c7)"><path style=" stroke:none;fill-rule:nonzero;fill:#00bdd2;fill-opacity:1;" d="M 0 0.5 L 75.027344 0.5 L 75.027344 15.953125 L 0 15.953125 Z M 0 0.5 "/></g></g></g></g></g></g><g clip-rule="nonzero" clip-path="url(#51de91ddf9)"><g clip-rule="nonzero" clip-path="url(#9cb3feb7a4)"><g transform="matrix(1,0,0,1,0,31)"><g clip-path="url(#a55c897e1b)"><g clip-rule="nonzero" clip-path="url(#b4b6ef32a2)"><g clip-rule="nonzero" clip-path="url(#fab59e3333)"><path style=" stroke:none;fill-rule:nonzero;fill:#00bdd2;fill-opacity:1;" d="M 0 0.105469 L 75.027344 0.105469 L 75.027344 15.558594 L 0 15.558594 Z M 0 0.105469 "/></g></g></g></g></g></g><g clip-rule="nonzero" clip-path="url(#73fba07d34)"><g clip-rule="nonzero" clip-path="url(#e79a570681)"><g transform="matrix(1,0,0,1,0,54)"><g clip-path="url(#c11860e558)"><g clip-rule="nonzero" clip-path="url(#58e76d59f6)"><g clip-rule="nonzero" clip-path="url(#3e377e8bee)"><path style=" stroke:none;fill-rule:nonzero;fill:#00bdd2;fill-opacity:1;" d="M 0 0.808594 L 75.027344 0.808594 L 75.027344 16.261719 L 0 16.261719 Z M 0 0.808594 "/></g></g></g></g></g></g></g></svg>